Coordinates
version=1
nRows=32
nColumns=12
inDegrees=yes

Units are S.I. units (second, meters, Newtons, ...)
Angles are in degrees

endheader
time	SC_y	SC_z	SC_x	AC_y	AC_z	AC_x	GH_y	GH_z	GH_yy	EL_x	PS_y
       0.0              -35.49          21.38          30.99          60.99         -9.973         -1.645          26.97          17.57          21.75          30.67          40.97
   0.01782              -35.49          21.38           31.0          60.98         -9.972         -1.645          26.95          17.57          21.75          30.67          40.97
   0.03565              -35.49          21.37           31.0          60.98         -9.971         -1.645          26.94          17.58          21.76          30.67          40.97
   0.05347               -35.5          21.37          31.01          60.98          -9.97         -1.645          26.92          17.58          21.76          30.67          40.97
    0.0713               -35.5          21.37          31.02          60.97         -9.968         -1.644           26.9          17.59          21.77          30.67          40.98
   0.08912               -35.5          21.36          31.02          60.97         -9.967         -1.644          26.88           17.6          21.77          30.67          40.98
    0.1069               -35.5          21.36          31.03          60.97         -9.966         -1.644          26.86           17.6          21.78          30.67          40.98
    0.1248               -35.5          21.35          31.04          60.96         -9.964         -1.644          26.84          17.61          21.79          30.67          40.98
    0.1426               -35.5          21.35          31.05          60.96         -9.962         -1.644          26.82          17.62          21.79          30.67          40.98
    0.1604              -35.51          21.34          31.06          60.95         -9.961         -1.643          26.79          17.63           21.8          30.67          40.98
    0.1782              -35.51          21.33          31.07          60.95         -9.959         -1.643          26.76          17.64          21.81          30.67          40.99
    0.1961              -35.51          21.32          31.08          60.94         -9.957         -1.643          26.73          17.65          21.82          30.67          40.99
    0.2139              -35.51          21.32          31.09          60.94         -9.955         -1.642           26.7          17.66          21.82          30.67          40.99
    0.2317              -35.52          21.31           31.1          60.93         -9.952         -1.642          26.67          17.67          21.83          30.67          40.99
    0.2495              -35.52           21.3          31.11          60.93          -9.95         -1.642          26.63          17.69          21.84          30.67          40.99
    0.2674              -35.52          21.29          31.13          60.92         -9.947         -1.641          26.59           17.7          21.86          30.67           41.0
    0.2852              -35.53          21.28          31.14          60.91         -9.944         -1.641          26.55          17.72          21.87          30.67           41.0
     0.303              -35.53          21.27          31.16           60.9          -9.94          -1.64           26.5          17.73          21.88          30.66           41.0
    0.3208              -35.53          21.25          31.18          60.89         -9.937          -1.64          26.45          17.75          21.89          30.66          41.01
    0.3387              -35.54          21.24           31.2          60.88         -9.933         -1.639          26.39          17.77          21.91          30.66          41.01
    0.3565              -35.54          21.23          31.22          60.87         -9.928         -1.639          26.33          17.79          21.93          30.66          41.01
    0.3743              -35.55          21.21          31.24          60.86         -9.924         -1.638          26.26          17.82          21.95          30.66          41.02
    0.3921              -35.55          21.19          31.27          60.85         -9.918         -1.637          26.19          17.85          21.97          30.66          41.02
      0.41              -35.56          21.17           31.3          60.83         -9.912         -1.636           26.1          17.87          21.99          30.66          41.03
    0.4278              -35.57          21.15          31.33          60.82         -9.906         -1.635          26.01          17.91          22.02          30.66          41.04
    0.4456              -35.58          21.12          31.37           60.8         -9.899         -1.634           25.9          17.95          22.05          30.66          41.04
    0.4634              -35.58          21.09          31.41          60.78         -9.891         -1.633          25.79          17.99          22.08          30.66          41.05
    0.4812              -35.59          21.06          31.45          60.76         -9.881         -1.632          25.66          18.03          22.12          30.65          41.06
    0.4991              -35.61          21.02          31.51          60.73         -9.871          -1.63          25.51          18.09          22.16          30.65          41.07
    0.5169              -35.62          20.98          31.57           60.7         -9.859         -1.628          25.34          18.15           22.2          30.65          41.08
    0.5347              -35.63          20.93          31.63          60.67         -9.846         -1.626          25.15          18.21          22.26          30.65           41.1
    0.5525              -35.65          20.88          31.71          60.63          -9.83         -1.624          24.93          18.29          22.32          30.64          41.11
